<?xml version="1.0" encoding="UTF-8"?>
<svg id="_图层_1" data-name="图层 1" xmlns="http://www.w3.org/2000/svg" viewBox="0 0 28 28">
  <defs>
    <style>
      .cls-1 {
        fill: #000;
      }

      .cls-1, .cls-2, .cls-3 {
        stroke-width: 0px;
      }

      .cls-2 {
        fill: #f8312f;
      }

      .cls-3 {
        fill: #fff;
      }
    </style>
  </defs>
  <path class="cls-3" d="M25.88,13.94c0,6.59-5.34,11.94-11.94,11.94S2,20.53,2,13.94,7.34,2,13.94,2s11.94,5.34,11.94,11.94Z"/>
  <path class="cls-1" d="M20.99,10.62c0,1.06-.43,2.02-1.12,2.72,1.02.81,1.67,2.07,1.67,3.47,0,2.45-1.99,4.44-4.44,4.44s-4.44-1.99-4.44-4.44c0-1.4.65-2.66,1.67-3.47-.69-.7-1.12-1.66-1.12-2.72,0-2.14,1.74-3.88,3.88-3.88s3.88,1.74,3.88,3.88ZM17.11,12.25c.9,0,1.63-.73,1.63-1.63s-.73-1.63-1.63-1.63-1.63.73-1.63,1.63.73,1.63,1.63,1.63ZM17.11,18.5c.93,0,1.69-.76,1.69-1.69s-.76-1.69-1.69-1.69-1.69.76-1.69,1.69.76,1.69,1.69,1.69Z"/>
  <path class="cls-1" d="M11.56,8.33c0-.5-.3-.95-.76-1.15-.46-.2-.99-.1-1.36.25l-2.76,2.64c-.5.48-.52,1.27-.04,1.77.48.5,1.27.52,1.77.04l.65-.62v8.36c0,.69.56,1.25,1.25,1.25s1.25-.56,1.25-1.25v-11.28Z"/>
  <path class="cls-2" d="M14,28c7.73,0,14-6.27,14-14S21.73,0,14,0,0,6.27,0,14s6.27,14,14,14ZM20.65,22.77c-1.85,1.4-4.15,2.23-6.65,2.23-6.08,0-11-4.92-11-11,0-2.5.83-4.8,2.23-6.65l15.41,15.41ZM22.77,20.65L7.35,5.23c1.85-1.4,4.15-2.23,6.65-2.23,6.08,0,11,4.92,11,11,0,2.5-.83,4.8-2.23,6.65Z"/>
</svg>